<?xml version="1.0" encoding="UTF-8" standalone="no"?>
<svg xmlns:dc="http://purl.org/dc/elements/1.1/" xmlns:cc="http://creativecommons.org/ns#" xmlns:rdf="http://www.w3.org/1999/02/22-rdf-syntax-ns#" xmlns:svg="http://www.w3.org/2000/svg" xmlns="http://www.w3.org/2000/svg" xmlns:sodipodi="http://sodipodi.sourceforge.net/DTD/sodipodi-0.dtd" xmlns:inkscape="http://www.inkscape.org/namespaces/inkscape" version="1.0" width="96.000000pt" height="96.000000pt" viewBox="0 0 96.000000 96.000000" preserveAspectRatio="xMidYMid meet" id="svg893" sodipodi:docname="ic_lock_lock_alpha.svg" inkscape:version="0.92.2 5c3e80d, 2017-08-06">
	<defs id="defs897"/>
	<sodipodi:namedview pagecolor="#ffffff" bordercolor="#666666" borderopacity="1" objecttolerance="10" gridtolerance="10" guidetolerance="10" inkscape:pageopacity="0" inkscape:pageshadow="2" inkscape:window-width="1920" inkscape:window-height="1020" id="namedview895" showgrid="false" inkscape:zoom="6.4453125" inkscape:cx="64" inkscape:cy="64" inkscape:window-x="0" inkscape:window-y="32" inkscape:window-maximized="1" inkscape:current-layer="svg893"/>
	<g transform="translate(0.000000,96.000000) scale(0.100000,-0.100000)" fill="#000000" stroke="none" id="g891" style="fill:#737373;fill-opacity:1">
		<path d="M433 781 c-85 -21 -123 -81 -123 -196 l0 -75 -40 0 -40 0 0 -170 0 -170 250 0 250 0 0 170 0 170 -39 0 -39 0 -4 88 c-2 72 -7 93 -26 120 -39 54 -118 80 -189 63z m115 -107 c18 -21 22 -37 22 -95 l0 -69 -90 0 -90 0 0 68 c0 72 15 106 54 122 32 14 79 3 104 -26z" id="path889" style="fill:#737373;fill-opacity:1"/>
	</g>
</svg>

